<svg xmlns="http://www.w3.org/2000/svg" viewBox="0 0 134.68310546875 40" fill="none"> <path d="M47.698059283141525 24.070069855110013V15.617243212981215H49.77802620321922V19.03352141271814L54.70932692015016 15.617243212981215H57.69734282960343L51.8479980876406 19.53132416358056L58.35151791330879 24.070069855110013H55.090137778655496L49.77802620321922 20.253615415283654V24.070069855110013H47.698059283141525Z" fill="#101010"></path> <path d="M64.05443538290672 24.070069855110013L58.937476878659844 15.617243212981215H61.27131770440776L64.85503773897697 21.74699868028177L68.2338595425919 15.617243212981215H70.37229742125899L65.47023218362274 24.070069855110013H64.05443538290672Z" fill="#101010"></path> <path d="M75.45002541055484 20.673331950081167H79.3268498657453L77.35432957897294 17.149682079806354L75.45002541055484 20.673331950081167ZM71.44651387842069 24.070069855110013L76.46552103323575 15.617243212981215H78.44803635566441L83.54525466449009 24.070069855110013H81.23090415827197L80.16668273676659 22.21551597667121H74.57121190047397L73.50674060307718 24.070069855110013H71.44651387842069Z" fill="#101010"></path> <path d="M85.66420222362738 24.070069855110013V15.617243212981215H91.357124657569C92.4443346610839 15.617243212981215 93.36887545929238 15.783185792465067 94.13049717630305 16.115045963843635C94.89861566649033 16.4469061352222 95.47482947207648 16.928441965553976 95.8588887171701 17.559628467249826C96.24294796226374 18.190839956534816 96.43510252275627 18.942416662710894 96.43510252275627 19.814383573367202C96.43510252275627 21.232953996477853 95.96958373706373 22.296875566913556 95.03854616567864 23.00614828467431C94.10775847018495 23.715445990024207 92.70795372651902 24.070069855110013 90.83963168646365 24.070069855110013H85.66420222362738ZM87.74416914370507 22.48883022669295H90.40034986936891C91.292156925803 22.48883022669295 92.02454316351896 22.410744010628044 92.59750858251682 22.254571578498233C93.17672089879986 22.09190237319182 93.6065074320211 21.805569589227737 93.88636843039774 21.395623201784264C94.17272620195095 20.985676814340792 94.31590508772757 20.42605476794411 94.31590508772757 19.716757062594212C94.31590508772757 17.992363535989682 93.33639159340939 17.130166772687414 91.37686485299021 17.130166772687414H87.74416914370507V22.48883022669295Z" fill="#101010"></path> <path d="M99.55005538504464 24.070069855110013V15.617243212981215H107.16677230693413C107.8501828699342 15.617243212981215 108.35168378398946 15.744130190638046 108.67052542142568 15.997904145951704C108.98961693475331 16.251703088854505 109.14903775347142 16.671419623652017 109.14903775347142 17.257053750344244V19.248239766204776C109.14903775347142 19.820880346543802 108.986368548165 20.234100108164718 108.66078026166078 20.487874063478372C108.34168874833314 20.741648018792034 107.8436860967576 20.868534996448865 107.16677230693413 20.868534996448865H106.00459953599693L110.0278512635523 24.070069855110013H107.06907083339372L103.5243314378841 20.868534996448865H101.58129650629783V24.070069855110013H99.55005538504464ZM106.28795879685326 17.07159586374145H101.58129650629783V19.41418234568863H106.28795879685326C106.61979398064268 19.41418234568863 106.8574259533714 19.36862997068501 107.00085471503942 19.27752522067776C107.15053037399264 19.179923697493912 107.22524326552353 18.997714197479418 107.22524326552353 18.730921708223416V17.75485650120666C107.22524326552353 17.48154225118492 107.15053037399264 17.299357738759568 107.00085471503942 17.208252988752317C106.8574259533714 17.117148238745074 106.61979398064268 17.07159586374145 106.28795879685326 17.07159586374145Z" fill="#101010"></path> <path d="M115.27174672063427 20.673331950081167H119.14832129993333L117.17580101316094 17.149682079806354L115.27174672063427 20.673331950081167ZM111.26798531260872 24.070069855110013L116.28724234331517 15.617243212981215H118.26950778985244L123.36697597456953 24.070069855110013H121.05262546835141L119.9881541709546 22.21551597667121H114.3929332105534L113.3284619131566 24.070069855110013H111.26798531260872Z" fill="#101010"></path> <path d="M130.52467088394306 17.130166772687414V24.070069855110013H128.46419428339516V17.130166772687414H124.3824715972504V15.617243212981215H134.61613872985274V17.130166772687414H130.52467088394306Z" fill="#101010"></path> <path d="M15.702800718199212 10.712079514291512L19.829650990332215 16.495382058155293V39.98014262523191L12.085597314181355 32.28521454933181L17.437189280460053 26.967605704284555L15.428636890146683 27.496592966394655L12.254713317486086 24.342734427814097V14.589003919838532L6.530231558459676 20.27710374907598L14.534006236139698 28.229978707676253L11.26887796311529 31.47436728171382L0 20.27710374907598L9.626243828179353 10.712079514291512H15.702800718199212Z" fill="#101010"></path> <path d="M34.28347205291918 20.27710374907598L28.558815380768785 14.589003919838532V24.342734427814097L25.385141683999592 27.496592966394655L23.37646435574052 26.967605704284555L28.727981359251796 32.28521454933181L20.98400264586836 39.98014262523191V16.495382058155293L25.11077795523394 10.712079514291512H31.187509758377782L40.813728598968 20.27710374907598L29.54482564826357 31.47436728171382L26.27969737523916 28.229978707676253L34.28347205291918 20.27710374907598Z" fill="#101010"></path> <path d="M10.780595483715503 9.56504922237361L20.406814324305717 0L30.03308314007421 9.56504922237361H24.514049338963215L20.406814324305717 15.3213901575545L16.299604297237362 9.56504922237361H10.780595483715503Z" fill="#101010"></path> <path d="M32.65053310256987 20.27710374907598L29.71324199907236 17.35850336225577V23.195704135896193L32.65053310256987 20.27710374907598Z" fill="#101010"></path> <path d="M11.100361661949936 23.195704135896193L8.16307055845243 20.27710374907598L11.100361661949936 17.35850336225577V23.195704135896193Z" fill="#101010"></path> </svg>