<svg viewBox="0 0 40.833984375 40" fill="none" xmlns="http://www.w3.org/2000/svg"> <path d="M15.646985241996951 10.674003515625L19.759166658727136 16.436749358088797V39.838033536585364L12.04263915777439 32.1704570193407L17.375208934355946 26.871749571265244L15.373795927019817 27.398856552496188L12.211154039634147 24.256208378191694V14.537147425209604L6.507019904011052 20.205028950314407L14.482345230325839 28.129635480182927L11.228822828934833 31.36249190167683L0 20.205028950314407L9.592027423542302 10.674003515625H15.646985241996951Z" fill="#101010"></path> <path d="M34.161611733041156 20.205028950314407L28.45755229373095 14.537147425209604V24.256208378191694L25.294910406345274 27.398856552496188L23.293372905154346 26.871749571265244L28.625867985423017 32.1704570193407L20.909415180783157 39.838033536585364V16.436749358088797L25.021521901200458 10.674003515625H31.07665401105183L40.668656535823175 20.205028950314407L29.439808808117377 31.36249190167683L26.186286406726374 28.129635480182927L34.161611733041156 20.205028950314407Z" fill="#101010"></path> <path d="M10.742275945598323 9.531050333460367L20.334303369140628 0L29.926330792682926 9.531050333460367H24.42691435189596L20.334303369140628 15.266930402057929L16.24166748761433 9.531050333460367H10.742275945598323Z" fill="#101010"></path> <path d="M32.53447705078125 20.205028950314407L29.607626524390245 17.296802704601756V23.11325519602706L32.53447705078125 20.205028950314407Z" fill="#101010"></path> <path d="M11.060905517578124 23.11325519602706L8.134054991187119 20.205028950314407L11.060905517578124 17.296802704601756V23.11325519602706Z" fill="#101010"></path> </svg>